PathFileType	4	(X/Y/Z)	c:/Users/goper/Files/vsCode/490R/osim_files/C15/C15_Fast_02.trc
DataRate	CameraRate	NumFrames	NumMarkers	Units                	OrigDataRate	OrigDataStartFrame	OrigNumFrames
250.00	250.00	9	36	mm	250.0	797	2123
                Frame#	Time	LPSIS			LASIS			LTH1			LTH2			LTH3			LTH4			LLFE			LMFE			LSH1			LSH2			LSH3			LSH4			LLMAL			LMMAL			LCAL			LMTP5			LTOE			LMTP1			RPSIS			RASIS			RTH1			RTH2			RTH3			RTH4			RLFE			RMFE			RSH1			RSH2			RSH3			RSH4			RLMAL			RMMAL			RCAL			RMTP1			RTOE			RMTP5		
		X1	Y1	Z1	X2	Y2	Z2	X3	Y3	Z3	X4	Y4	Z4	X5	Y5	Z5	X6	Y6	Z6	X7	Y7	Z7	X8	Y8	Z8	X9	Y9	Z9	X10	Y10	Z10	X11	Y11	Z11	X12	Y12	Z12	X13	Y13	Z13	X14	Y14	Z14	X15	Y15	Z15	X16	Y16	Z16	X17	Y17	Z17	X18	Y18	Z18	X19	Y19	Z19	X20	Y20	Z20	X21	Y21	Z21	X22	Y22	Z22	X23	Y23	Z23	X24	Y24	Z24	X25	Y25	Z25	X26	Y26	Z26	X27	Y27	Z27	X28	Y28	Z28	X29	Y29	Z29	X30	Y30	Z30	X31	Y31	Z31	X32	Y32	Z32	X33	Y33	Z33	X34	Y34	Z34	X35	Y35	Z35	X36	Y36	Z36

797	3.18400	411.94470	1025.65540	206.44037	249.44469	1004.33032	276.64410	211.61386	627.58099	363.05292	194.58463	582.68542	349.02652	166.37947	651.80170	358.51682	150.66646	609.51978	353.26865	169.55595	523.17389	329.77536	145.37540	499.94601	211.05998	267.17844	463.31107	323.38919	289.53836	425.17743	329.21973	216.53488	427.94852	341.14624	246.47978	395.09427	345.06458	394.35248	179.61609	280.59338	340.71832	181.10716	202.50693	445.52124	180.20169	220.27380	320.32324	79.05980	329.37460	245.08208	74.11293	286.10150	281.10101	57.97725	221.88689	403.51633	1029.00928	86.26162	246.28508	1001.41974	27.98852	298.73288	628.24609	-11.96670	297.14615	582.71094	-1.50909	238.44321	628.79456	3.61312	244.47641	582.01453	9.90959	293.15982	491.15778	28.81252	313.52206	477.69171	145.23390	381.33951	389.92789	9.62574	385.05411	346.29465	8.26724	319.96237	378.15750	14.57472	333.51923	336.33112	11.24105	396.83142	84.95958	82.58512	369.15210	108.70501	170.29062	462.33096	61.06647	128.02632	263.01257	39.47690	174.90280	224.40198	55.95310	122.80047	284.61609	31.39466	53.63086
798	3.18800	408.18701	1025.85535	206.74593	244.99055	1004.23065	276.37952	205.66507	628.31024	362.93964	189.16864	583.89990	349.23447	160.79794	652.89825	358.49893	144.62029	610.70007	353.05820	163.22076	524.16656	329.41647	138.85901	500.94598	210.83324	260.17920	462.24545	322.91135	281.68295	423.57062	328.89236	208.91106	428.01514	340.98694	238.09843	394.59760	344.97626	381.03568	175.42278	281.03610	327.05609	177.57596	203.22540	432.21362	174.46849	220.64505	304.76440	77.30804	330.88721	228.77815	74.11660	287.82336	264.72543	56.51835	223.68951	400.28693	1029.28479	86.46622	242.57339	1001.19446	27.80236	296.82632	628.24817	-11.98993	295.55838	582.72437	-1.59691	236.57086	628.47351	3.59529	242.89186	581.71826	9.89401	292.13321	491.11404	28.61480	312.41098	477.69226	145.15494	380.69449	390.10400	9.66007	384.44275	346.50046	8.27878	319.30826	378.14832	14.50485	332.95822	336.36401	11.17878	396.76431	85.14989	82.68113	368.97375	108.87344	170.24734	462.28290	61.20384	128.08727	262.97473	39.48715	174.89125	224.37270	55.92709	122.77576	284.62775	31.38663	53.59447
799	3.19200	404.01151	1025.84888	206.91316	241.09515	1004.63116	276.12634	199.75148	628.88727	362.72571	182.22726	584.26282	348.49915	154.79033	653.80109	358.38782	138.58029	611.63629	352.61932	156.97595	525.01788	328.88910	132.30910	501.95944	210.50395	252.32629	460.39548	322.66785	273.92361	421.91833	328.61914	201.04335	427.83344	340.17291	229.66136	393.93585	344.90997	367.34494	171.03040	281.49835	314.05228	174.63141	204.09041	418.77313	168.80859	220.95602	289.21234	75.54050	332.33731	213.42525	73.87318	289.77756	248.30118	55.18876	225.43015	395.52042	1028.84265	86.61005	238.88969	1000.97693	27.62224	294.93512	628.25458	-12.03273	293.60995	582.68134	-1.28094	234.97165	628.48840	3.42902	241.23082	581.44482	9.87169	290.90854	491.00629	28.56609	311.25436	477.72644	145.05437	379.96945	390.27020	9.67412	383.89008	346.67627	8.29304	318.48077	377.99268	14.53815	332.37750	336.41080	11.11052	396.69128	85.34758	82.74204	368.81732	108.99675	170.29689	462.25665	61.38056	128.13300	262.94153	39.50143	174.87425	224.39221	55.92815	122.74889	284.59372	31.39986	53.58744
800	3.19600	399.59030	1025.59827	207.02960	236.33438	1004.23413	276.02658	194.00905	629.44879	362.56192	177.01083	585.26825	348.62531	148.93410	654.52783	357.98880	132.77910	612.61536	352.32410	150.87421	525.78638	328.34094	125.69035	502.33759	210.61449	244.66814	458.88058	322.39355	266.02878	420.14157	328.39639	193.62256	427.89313	340.61078	221.26958	393.19357	344.91492	353.97589	167.01619	282.12906	300.54584	170.66826	202.77484	404.96039	163.09535	221.38330	273.75180	73.84181	333.83774	197.76422	73.70205	291.64069	230.90034	54.40417	227.18640	391.67099	1028.87317	86.79930	235.23611	1000.76038	27.41551	293.08557	628.31061	-12.09328	292.14474	582.69830	-1.64475	232.72647	627.87494	3.57686	239.60973	581.14581	9.86164	289.52368	490.84421	28.63124	310.16028	477.76733	145.03123	379.25348	390.48166	9.69019	383.28122	346.87518	8.31862	317.44839	377.66458	14.69227	331.78870	336.41843	11.09206	396.56927	85.53585	82.83987	368.53589	109.11002	170.33766	462.21329	61.52024	128.17491	262.90271	39.49416	174.86421	224.52383	55.69508	122.84970	284.59247	31.42030	53.56355
801	3.20000	395.52197	1025.53894	207.21405	232.62262	1004.55377	275.81354	188.32092	629.82062	362.32373	170.21237	585.41620	347.80441	143.86771	655.30029	357.76666	126.95718	613.32678	351.92722	144.74391	526.41412	327.84357	119.48806	503.24283	210.29193	237.86261	457.65234	322.11301	258.14505	418.15268	328.28186	185.86731	427.58838	340.45212	212.77460	392.32678	344.86469	340.51382	163.04987	282.74701	287.68262	167.89038	203.93376	391.44031	157.59485	221.90782	257.94556	71.91670	335.37805	182.19423	73.63190	293.53040	214.24864	52.87495	229.13019	387.86624	1028.77698	86.98487	231.53737	1000.51361	27.25673	291.06976	628.23712	-12.08223	290.38837	582.64880	-1.62730	230.74113	627.63983	3.54531	237.81522	580.90234	9.86784	288.01666	490.63760	28.77509	308.94138	477.70740	144.90961	378.53070	390.66650	9.67362	382.54706	347.05811	8.34531	316.17966	377.13831	14.98483	331.13034	336.45444	11.00992	396.49252	85.74818	82.89616	368.34930	109.25151	170.40668	462.14523	61.65591	128.22545	262.88669	39.51096	174.83556	224.52010	55.69055	122.80595	284.56732	31.41436	53.57059
802	3.20400	391.76138	1025.54468	207.54341	227.93588	1003.99176	275.79620	182.76874	630.11853	362.04755	164.45442	585.87177	347.46078	138.06207	655.79083	357.47266	121.48243	614.04089	351.71179	138.79684	526.96643	327.35721	113.54034	504.52228	209.52782	230.64412	455.76349	322.08298	250.19211	416.09299	328.32211	178.16672	427.17545	340.28729	204.22461	391.33997	344.80121	327.21066	159.32898	283.51822	272.97232	164.53323	204.29999	377.65204	151.98190	222.35789	242.51480	70.25004	336.78278	166.30278	73.45302	295.22565	197.72253	51.60533	230.96730	384.05978	1028.70947	87.19365	227.60828	1000.29382	27.22495	289.11575	628.24371	-12.15693	288.61429	582.63562	-1.69285	228.36859	627.52716	3.69019	236.11513	580.60522	9.86891	286.42538	490.39627	28.96249	307.81308	477.66220	144.85284	377.76236	390.85428	9.61379	381.94818	347.24036	8.32150	314.64301	376.38794	15.43349	330.52075	336.52206	10.89885	396.39636	85.93753	82.95003	369.92218	109.00989	171.95081	462.09668	61.75335	128.28545	262.49948	39.77020	174.67284	224.48378	55.68393	122.80174	284.63379	31.42335	53.57211
803	3.20800	387.60403	1025.33154	207.84645	223.71562	1003.78149	275.76697	177.34695	630.34387	361.76843	158.89154	586.28717	347.09583	132.97736	656.39087	357.36615	115.76031	614.44342	351.19629	132.80888	527.38873	326.85309	107.15668	504.71988	209.55809	223.56696	454.01062	322.18921	242.15404	413.84619	328.47949	170.36801	426.58701	340.12320	195.58539	390.17386	344.78400	312.97632	155.01857	284.53165	260.03937	162.10258	205.61018	363.14496	146.55386	222.77498	226.92804	68.55708	338.22006	150.40112	73.72827	296.64590	181.56758	50.77621	232.60474	380.11319	1028.59021	87.45398	224.60066	999.98242	26.80762	286.75336	627.76978	-12.19809	286.87289	582.66638	-1.78774	227.06036	627.08661	3.55978	234.35321	580.32184	9.84974	284.78778	490.13000	29.15827	306.56595	477.61795	144.78607	376.93433	390.98761	9.63104	381.29718	347.42328	8.31359	313.12698	375.65659	15.84769	329.87003	336.53052	10.85374	396.33090	86.11784	83.01923	369.29361	109.27975	171.74095	462.03979	61.87109	128.34535	263.22083	39.43541	174.89119	224.50310	55.83672	122.62907	284.58621	31.40615	53.55206
804	3.21200	383.46365	1025.15930	208.11588	218.68758	1003.75378	275.50821	171.96919	630.62274	360.90594	153.17465	586.45782	346.57007	127.72868	656.79724	357.10172	110.49367	615.03271	350.83258	126.94609	527.76306	326.39249	101.30078	506.00101	208.66617	216.42615	452.11557	322.35504	234.07158	411.49826	328.74203	162.52959	425.95157	340.08264	186.91522	388.90622	344.78818	299.38962	151.34918	284.71545	245.14328	158.84369	205.84798	348.88580	141.25821	223.28889	211.27061	67.07679	339.54938	134.83040	73.58193	298.24164	165.11127	49.73583	234.23734	376.21259	1028.41101	87.73277	220.49529	999.69556	26.80578	284.70874	627.70056	-12.25726	284.99173	582.56055	-1.81240	224.86958	626.61719	3.59106	232.46478	580.01959	9.87849	283.13611	489.84744	29.33304	305.43060	477.56161	144.71318	376.12213	391.12875	9.60843	380.48715	347.58600	8.27318	312.55756	375.74454	15.61609	329.11096	336.54675	10.78481	396.25674	86.31537	83.08087	369.19421	109.36382	171.78830	461.99084	62.03955	128.37480	263.19052	39.42969	174.88536	224.49088	55.82570	122.59248	284.63553	31.43739	53.55409
805	3.21600	379.39444	1024.93872	208.40352	215.21661	1003.23444	275.65280	166.72360	630.72388	360.59225	147.79692	586.74371	346.15176	122.41053	657.02155	356.59811	104.93182	615.14398	350.54309	121.17255	528.02625	325.87656	95.48080	506.68909	208.45927	209.51662	450.37000	322.58472	225.88344	409.06018	329.12775	154.74973	425.26172	340.01959	178.05594	387.59378	344.80200	285.48096	147.51945	285.38995	231.87743	156.21774	206.86115	334.54956	136.04332	223.79395	195.64803	65.65989	340.85849	119.29583	73.56412	299.76141	148.66129	48.83534	235.74086	372.47278	1028.31140	87.96398	216.76738	999.40356	26.70827	282.92358	628.07770	-12.30014	282.97122	582.47711	-1.57220	223.45212	626.51019	3.74867	230.64958	579.65698	9.90580	281.47940	489.55280	29.48041	304.14697	477.53018	144.66235	375.35156	391.31680	9.54098	379.79126	347.74985	8.25423	311.93411	375.88058	15.36865	328.33859	336.54529	10.72358	396.18097	86.49036	83.12925	369.08722	109.45422	171.78964	461.93906	62.19891	128.39055	263.15753	39.40863	174.88298	224.50447	55.81032	122.56715	284.62531	31.41091	53.54950
